<?xml version="1.0" encoding="iso-8859-1"?>
<!-- Generator: Adobe Illustrator 19.0.0, SVG Export Plug-In . SVG Version: 6.00 Build 0)  -->
<svg version="1.1" id="Layer_1" xmlns="http://www.w3.org/2000/svg" xmlns:xlink="http://www.w3.org/1999/xlink" x="0px" y="0px"
	 viewBox="0 0 512 512" style="enable-background:new 0 0 512 512;" xml:space="preserve">
<polygon style="fill:#E04C00;" points="158.853,37.912 127.506,118.421 158.853,244.587 317.706,150.902 317.706,37.912 "/>
<polygon style="fill:#FF7D3C;" points="158.853,37.912 0,37.912 0,302.147 61.572,263.582 126.644,263.582 158.853,239.712 "/>
<rect x="51.555" y="163.621" style="fill:#FFB995;" width="107.301" height="31.347"/>
<polygon style="fill:#2D64BC;" points="317.706,150.902 275.911,273.237 317.706,426.919 436.691,426.919 512,474.088 512,150.902 
	"/>
<rect x="123.413" y="150.904" style="fill:#6499F3;" width="194.288" height="276.02"/>
<polygon style="fill:#FF7D3C;" points="266.156,138.886 158.853,138.886 148.404,123.212 158.853,107.539 266.156,107.539 "/>
<rect x="51.555" y="107.541" style="fill:#FFB995;" width="107.301" height="31.347"/>
<g>
	<polygon style="fill:#9BD6FF;" points="460.45,248.51 317.706,248.51 307.257,232.837 317.706,217.163 460.45,217.163 	"/>
	<polygon style="fill:#9BD6FF;" points="460.45,304.585 317.706,304.585 307.257,288.911 317.706,273.238 460.45,273.238 	"/>
	<polygon style="fill:#9BD6FF;" points="460.45,360.658 317.706,360.658 307.257,344.985 317.706,329.311 460.45,329.311 	"/>
</g>
<g>
	<rect x="174.958" y="273.241" style="fill:#C4EAFF;" width="142.743" height="31.347"/>
	<rect x="174.958" y="329.31" style="fill:#C4EAFF;" width="142.743" height="31.347"/>
	<rect x="174.958" y="217.161" style="fill:#C4EAFF;" width="142.743" height="31.347"/>
</g>
<g>
</g>
<g>
</g>
<g>
</g>
<g>
</g>
<g>
</g>
<g>
</g>
<g>
</g>
<g>
</g>
<g>
</g>
<g>
</g>
<g>
</g>
<g>
</g>
<g>
</g>
<g>
</g>
<g>
</g>
</svg>
