<?xml version="1.0" encoding="iso-8859-1"?>
<!-- Generator: Adobe Illustrator 19.0.0, SVG Export Plug-In . SVG Version: 6.00 Build 0)  -->
<svg version="1.1" id="Layer_1" xmlns="http://www.w3.org/2000/svg" xmlns:xlink="http://www.w3.org/1999/xlink" x="0px" y="0px"
	 viewBox="0 0 508 508" style="enable-background:new 0 0 508 508;" xml:space="preserve">
<circle style="fill:#FD8469;" cx="254" cy="254" r="254"/>
<path style="fill:#2B3B4E;" d="M290.4,62.4c0,3.6-1.2,6.8-3.2,9.6c-9.6-5.6-21.2-8-33.2-8c-12.4,0-23.6,2.4-33.2,8
	c-2-2.8-3.2-6-3.2-9.6c0-13.2,16.4-24,36.4-24S290.4,49.2,290.4,62.4z"/>
<path style="fill:#324A5E;" d="M316.4,132.8c0,8.8-0.8,17.6-2.4,26.4c-1.6-1.2-4-1.2-6-0.4l0,0c1.2-22-12-25.2-12-25.2
	c-14-5.2-19.6-18.8-21.6-28.8c-6,6.4-15.6,13.6-31.2,19.6c-43.6,17.6-42,34.4-42,34.8l0,0l-0.4-0.4l0,0c-2.8-0.8-4.8-0.8-6.8,0.4
	c-1.6-8.8-2.4-18-2.4-26.4c0-49.6,28-68.8,62.4-68.8S316.4,83.2,316.4,132.8z"/>
<g>
	<path style="fill:#E6E9EE;" d="M254.4,264.8C254,264.8,254,264.8,254.4,264.8c-0.4,0-0.4,0-0.4,0H254.4z"/>
	<path style="fill:#E6E9EE;" d="M297.6,299.2L297.6,299.2c-0.4,4-1.2,8-2,12h-83.2c-0.8-4-1.2-8-2-12l0,0
		c10-31.6,43.6-34.4,43.6-34.4S287.6,267.6,297.6,299.2z"/>
</g>
<path style="fill:#F9B54C;" d="M294,214.4c0,0,5.2,28.4-40,50.4h-0.4c-45.2-22-40-50.4-40-50.4l0,0c0.8-3.2,1.6-6,2.8-8.8
	c10,17.6,23.2,29.6,37.6,29.6s28-12.4,37.6-30C292.8,208.4,293.6,211.2,294,214.4C294.4,214.4,294.4,214.4,294,214.4z"/>
<g>
	<path style="fill:#324A5E;" d="M397.2,310.8H295.6c0.8-4,1.2-8,2-12l0,0c0.8-0.8,11.6-42.4,5.6-68.4l80.4,38.8L397.2,310.8z"/>
	<path style="fill:#324A5E;" d="M212.4,310.8H110.8l13.6-41.6l80.4-38.8c-6,26,4.8,67.6,5.6,68.4l0,0
		C210.8,302.8,211.6,306.8,212.4,310.8z"/>
</g>
<g>
	<path style="fill:#FFFFFF;" d="M294,214.4c0,0,5.2,28.4-40,50.4c0,0,33.6,2.8,43.6,34.4C298,300.4,316.4,231.2,294,214.4z"/>
	<path style="fill:#FFFFFF;" d="M214,214.4c-22.4,16.8-4,86-3.6,84.8c10-31.6,43.6-34.4,43.6-34.4C208.8,242.8,214,214.4,214,214.4z
		"/>
</g>
<path style="fill:#FFD05B;" d="M314,159.6c-2-1.2-4-1.6-6.4-0.4l0,0c1.2-22-12-25.2-12-25.2c-14-5.2-19.6-18.8-21.6-28.8
	c-6,6.4-15.6,13.6-31.2,19.6c-43.6,17.6-42,34.4-42,34.8l0,0l-0.4-0.4l0,0c-2.4-1.2-4.8-1.2-6.4,0.4c-4.4,3.2-4.4,12.4-0.4,20.4
	c4,7.6,10.4,11.6,14.8,9.2c10,26,26.8,46.4,45.6,46.4s35.6-20.4,45.6-46.4c4.4,2.8,10.8-1.2,14.8-9.2
	C318.4,172,318.4,162.8,314,159.6z"/>
<path style="fill:#FF7058;" d="M362,310.8h-4c-2.8-18-12-30.8-19.6-38.4c1.2-0.8,2.4-1.6,2.8-2.8C349.2,278,359.2,292,362,310.8z"/>
<g>
	<rect x="63.2" y="310.8" style="fill:#FFD05B;" width="381.2" height="54"/>
	<path style="fill:#FFD05B;" d="M396,374.4l-5.6,93.6c-39.6,25.2-86.4,40-136.4,40c-50.4,0-97.2-14.8-136.4-40l-5.6-93.6H396z"/>
</g>
<polygon style="fill:#F9B54C;" points="395.2,388 396,374.4 112,374.4 112.8,388 63.2,364.8 444.8,364.8 "/>
<ellipse transform="matrix(0.4974 -0.8675 0.8675 0.4974 -62.0206 416.9308)" style="fill:#E6E9EE;" cx="328.819" cy="261.992" rx="10.4" ry="14.8"/>
<g>
</g>
<g>
</g>
<g>
</g>
<g>
</g>
<g>
</g>
<g>
</g>
<g>
</g>
<g>
</g>
<g>
</g>
<g>
</g>
<g>
</g>
<g>
</g>
<g>
</g>
<g>
</g>
<g>
</g>
</svg>
