<?xml version="1.0" encoding="iso-8859-1"?>
<!-- Generator: Adobe Illustrator 19.0.0, SVG Export Plug-In . SVG Version: 6.00 Build 0)  -->
<svg version="1.1" id="Layer_1" xmlns="http://www.w3.org/2000/svg" xmlns:xlink="http://www.w3.org/1999/xlink" x="0px" y="0px"
	 viewBox="0 0 504.123 504.123" style="enable-background:new 0 0 504.123 504.123;" xml:space="preserve">
<circle style="fill:#FD8469;" cx="252.062" cy="252.062" r="252.062"/>
<rect x="107.52" y="131.151" style="fill:#FFFFFF;" width="289.083" height="192.197"/>
<rect x="243.003" y="159.114" style="fill:#84DBFF;" width="137.452" height="17.723"/>
<g>
	<rect x="243.003" y="208.738" style="fill:#ACB3BA;" width="137.452" height="8.665"/>
	<rect x="123.274" y="237.489" style="fill:#ACB3BA;" width="257.182" height="8.665"/>
	<rect x="123.274" y="266.634" style="fill:#ACB3BA;" width="257.182" height="8.665"/>
	<rect x="123.274" y="295.385" style="fill:#ACB3BA;" width="141.785" height="8.665"/>
</g>
<g>
	<rect x="94.523" y="106.732" style="fill:#324A5E;" width="315.077" height="24.812"/>
	<rect x="94.523" y="323.742" style="fill:#324A5E;" width="315.077" height="24.812"/>
</g>
<path style="fill:#F9B54C;" d="M166.203,162.658c0,3.938-1.575,7.483-4.332,10.24c-2.757,2.757-6.302,3.938-10.634,3.938
	c-4.332,0-7.877-1.575-10.634-4.332c-2.757-2.757-4.332-6.302-4.332-10.24s1.575-7.483,4.332-10.24
	c2.757-2.757,6.302-4.332,10.634-4.332s7.877,1.575,10.634,4.332S166.203,158.326,166.203,162.658z M205.194,146.511l-50.806,70.892
	h-17.329l50.806-70.892H205.194z M148.086,166.203c0.788,0.788,1.969,1.182,3.151,1.182c1.182,0,2.363-0.394,3.151-1.182
	s1.182-1.969,1.182-3.545s-0.394-2.757-1.182-3.545c-0.788-0.788-1.969-1.575-3.151-1.575c-1.182,0-2.363,0.394-3.151,1.575
	c-0.788,0.788-1.182,2.363-1.182,3.545C146.905,163.84,147.298,165.022,148.086,166.203z M205.982,204.012
	c0,3.938-1.575,7.483-4.332,10.24c-2.757,2.757-6.302,3.938-10.634,3.938c-4.332,0-7.877-1.575-10.634-4.332
	c-2.757-2.757-4.332-6.302-4.332-10.24s1.575-7.483,4.332-10.24c2.757-2.757,6.302-4.332,10.634-4.332s7.877,1.575,10.634,4.332
	C204.8,196.529,205.982,200.074,205.982,204.012z M188.258,207.557c0.788,0.788,1.969,1.182,3.151,1.182s2.363-0.394,3.151-1.182
	c0.788-0.788,1.182-1.969,1.182-3.545c0-1.575-0.394-2.757-1.182-3.545c-0.788-0.788-1.969-1.575-3.151-1.575
	s-2.363,0.394-3.151,1.575c-0.788,0.788-1.182,2.363-1.182,3.545C187.077,205.588,187.471,206.769,188.258,207.557z"/>
<rect x="241.034" y="348.16" style="fill:#324A5E;" width="18.117" height="64.985"/>
<path style="fill:#2B3B4E;" d="M278.449,413.145h-56.714l0,0c0-8.665,7.089-15.754,15.754-15.754h25.6
	C271.754,397.785,278.449,404.48,278.449,413.145L278.449,413.145z"/>
<g>
</g>
<g>
</g>
<g>
</g>
<g>
</g>
<g>
</g>
<g>
</g>
<g>
</g>
<g>
</g>
<g>
</g>
<g>
</g>
<g>
</g>
<g>
</g>
<g>
</g>
<g>
</g>
<g>
</g>
</svg>
